<svg version="1.1" id="Layer_1" xmlns="http://www.w3.org/2000/svg" xmlns:xlink="http://www.w3.org/1999/xlink" x="0px" y="0px"
	 width="100%" viewBox="0 0 70 70" enable-background="new 0 0 70 70" xml:space="preserve">
<path fill="#000000" opacity="1.000000" stroke="none" 
	d="
M1.000000,32.000000 
	C1.000000,21.722803 1.000000,11.445604 1.000000,1.000000 
	C17.353895,1.000000 33.708290,1.000000 50.866684,1.266400 
	C49.764793,2.651751 47.858902,3.770700 45.577450,4.936140 
	C41.785156,6.952212 38.368420,8.921794 34.634987,11.030959 
	C31.176844,14.430319 28.035404,17.690096 24.512028,20.959080 
	C19.107971,19.274637 15.107683,22.112879 10.543531,23.978874 
	C8.455321,25.629557 6.706420,27.256580 4.621512,29.046055 
	C3.190337,30.139004 2.095169,31.069502 1.000000,32.000000 
z"/>
<path fill="#000000" opacity="1.000000" stroke="none" 
	d="
M71.000000,21.000000 
	C71.000000,37.576126 71.000000,54.152252 71.000000,71.000000 
	C60.980740,71.000000 50.959026,71.000000 40.136971,70.767136 
	C39.883385,69.971283 40.430145,69.408287 41.315239,68.833023 
	C44.046928,65.879700 46.440292,62.938656 49.007381,59.649471 
	C49.802921,55.237663 50.424732,51.173988 51.356102,46.971909 
	C54.814629,43.570385 57.963596,40.307266 61.430283,36.900993 
	C63.534103,33.188469 65.320198,29.619102 67.449997,25.882023 
	C68.201607,24.558630 68.463600,23.317108 69.073555,22.280285 
	C69.425163,21.682602 70.339142,21.415756 71.000000,21.000000 
z"/>
<path fill="#000000" opacity="1.000000" stroke="none" 
	d="
M16.000000,71.000000 
	C12.969407,71.000000 9.938814,71.000000 6.125853,70.788971 
	C6.577977,69.088303 7.812470,67.598671 9.356602,65.970596 
	C11.311691,64.196999 13.199433,62.731155 14.506974,60.859898 
	C15.230818,59.823986 14.983693,58.109612 15.174242,56.701061 
	C13.768303,56.977093 12.036829,56.834003 11.026199,57.618984 
	C9.098426,59.116318 7.581753,61.142933 5.573718,63.095116 
	C3.835345,64.160271 2.417672,65.080132 1.000000,66.000000 
	C1.000000,62.969406 1.000000,59.938812 1.277205,56.120140 
	C3.092990,56.195873 5.165592,58.133728 6.054837,57.691586 
	C7.715253,56.866009 8.884941,54.761154 9.827763,52.962643 
	C10.110874,52.422581 9.145527,50.921165 8.393639,50.281593 
	C8.044796,49.984856 6.770148,50.573872 6.033076,50.976917 
	C4.317371,51.915092 2.673173,52.984039 1.000001,54.000000 
	C1.000000,49.310745 1.000000,44.621487 1.239280,39.133118 
	C2.699160,39.264580 3.919759,40.195160 4.814154,40.877045 
	C6.793131,39.716003 8.397550,38.774708 10.366995,37.904633 
	C13.117133,40.302692 15.502246,42.629539 17.557209,45.145454 
	C15.683749,48.740719 14.749717,52.129383 18.389071,54.837601 
	C21.418539,57.091972 24.326313,56.330441 27.398649,54.065094 
	C29.889160,56.680218 32.027966,59.339180 34.089417,62.351387 
	C33.027206,64.116798 32.042347,65.528961 31.154539,66.801964 
	C31.799620,68.269394 32.399811,69.634697 33.000000,71.000000 
	C28.310745,71.000000 23.621489,71.000000 18.127811,70.743828 
	C18.520775,68.995331 19.821945,67.571411 20.870306,65.980858 
	C21.369635,65.223297 21.387920,64.148659 21.624105,63.217651 
	C20.480782,62.937012 19.118990,62.111668 18.231070,62.467800 
	C13.838565,64.229561 12.875872,67.144348 16.000000,71.000000 
z"/>
<path fill="#0DB1FF" opacity="1.000000" stroke="none" 
	d="
M71.000000,20.571537 
	C70.339142,21.415756 69.425163,21.682602 69.073555,22.280285 
	C68.463600,23.317108 68.201607,24.558630 67.170380,25.723812 
	C65.420296,25.154320 64.293533,24.575329 63.214394,23.631220 
	C62.907139,21.414125 63.109642,19.133150 62.082481,17.798605 
	C59.877716,14.934037 56.883583,12.691623 54.507038,9.940194 
	C52.500328,7.616941 50.437527,7.599465 47.926048,8.526822 
	C47.221157,7.106694 46.587082,5.998172 45.953011,4.889650 
	C47.858902,3.770700 49.764793,2.651751 51.335342,1.266400 
	C52.714359,1.000000 54.428715,1.000000 56.640266,1.366351 
	C57.439953,3.191116 57.742451,4.649530 58.140259,6.422390 
	C60.787670,9.142904 63.339783,11.548973 66.265411,13.981915 
	C68.092628,14.339192 69.546310,14.669596 71.000000,15.000000 
	C71.000000,16.714357 71.000000,18.428717 71.000000,20.571537 
z"/>
<path fill="#05BAFF" opacity="1.000000" stroke="none" 
	d="
M58.044952,6.107945 
	C57.742451,4.649530 57.439953,3.191116 57.068726,1.366351 
	C61.590599,1.000000 66.181198,1.000000 71.000000,1.000000 
	C71.000000,5.348905 71.000000,9.700325 71.000000,14.525872 
	C69.546310,14.669596 68.092628,14.339192 66.314377,13.535666 
	C65.989822,10.797632 65.989822,8.532722 65.989822,6.107945 
	C62.977947,6.107945 60.511448,6.107945 58.044952,6.107945 
z"/>
<path fill="#3D75FF" opacity="1.000000" stroke="none" 
	d="
M10.001968,37.833416 
	C8.397550,38.774708 6.793131,39.716003 4.814154,40.877045 
	C3.919759,40.195160 2.699160,39.264580 1.239280,38.667000 
	C1.000000,36.958332 1.000000,34.916668 1.000000,32.437500 
	C2.095169,31.069502 3.190337,30.139004 4.691093,29.381962 
	C6.102823,31.022738 7.108963,32.490055 8.328913,33.958241 
	C8.542721,33.959106 8.962730,33.878735 9.100610,34.194199 
	C9.492982,35.617584 9.747475,36.725498 10.001968,37.833416 
z"/>
<path fill="#3D75FF" opacity="1.000000" stroke="none" 
	d="
M33.437500,71.000000 
	C32.399811,69.634697 31.799620,68.269394 31.154539,66.801964 
	C32.042347,65.528961 33.027206,64.116798 34.432774,62.370758 
	C35.942051,62.370834 37.030613,62.704784 38.164391,63.341412 
	C38.793049,63.723442 39.376488,63.802795 40.027046,64.239548 
	C40.388412,66.013054 40.682663,67.429176 40.976906,68.845291 
	C40.430145,69.408287 39.883385,69.971283 39.668312,70.767136 
	C37.958332,71.000000 35.916668,71.000000 33.437500,71.000000 
z"/>
<path fill="#4968FF" opacity="1.000000" stroke="none" 
	d="
M1.000001,54.333336 
	C2.673173,52.984039 4.317371,51.915092 6.033076,50.976917 
	C6.770148,50.573872 8.044796,49.984856 8.393639,50.281593 
	C9.145527,50.921165 10.110874,52.422581 9.827763,52.962643 
	C8.884941,54.761154 7.715253,56.866009 6.054837,57.691586 
	C5.165592,58.133728 3.092990,56.195873 1.277205,55.666031 
	C1.000000,55.555553 1.000000,55.111111 1.000001,54.333336 
z"/>
<path fill="#4868FF" opacity="1.000000" stroke="none" 
	d="
M16.333332,71.000000 
	C12.875872,67.144348 13.838565,64.229561 18.231070,62.467800 
	C19.118990,62.111668 20.480782,62.937012 21.624105,63.217651 
	C21.387920,64.148659 21.369635,65.223297 20.870306,65.980858 
	C19.821945,67.571411 18.520775,68.995331 17.661694,70.743828 
	C17.555555,71.000000 17.111111,71.000000 16.333332,71.000000 
z"/>
<path fill="#515DFF" opacity="1.000000" stroke="none" 
	d="
M9.046963,66.109039 
	C7.812470,67.598671 6.577977,69.088303 5.671742,70.788971 
	C4.421039,71.000000 2.842079,71.000000 1.000000,71.000000 
	C1.000000,69.670563 1.000000,68.335243 1.000000,66.499962 
	C2.417672,65.080132 3.835345,64.160271 5.854367,63.257050 
	C7.319465,64.218811 8.183213,65.163925 9.046963,66.109039 
z"/>
<path fill="#2D88FF" opacity="1.000000" stroke="none" 
	d="
M10.882841,23.955215 
	C15.107683,22.112879 19.107971,19.274637 24.795614,21.122910 
	C26.664341,22.216682 27.867544,23.155838 28.938145,24.401321 
	C26.242369,27.819244 23.679193,30.930843 20.833813,33.882454 
	C19.686014,32.777542 18.820423,31.832615 17.983849,30.524042 
	C18.704887,28.999905 19.396910,27.839415 20.716787,25.626043 
	C18.188328,26.259510 16.651308,26.644587 14.828794,26.868574 
	C13.323148,25.790062 12.102995,24.872639 10.882841,23.955215 
z"/>
<path fill="#2197FF" opacity="1.000000" stroke="none" 
	d="
M29.070745,24.094994 
	C27.867544,23.155838 26.664341,22.216682 25.177551,21.113701 
	C28.035404,17.690096 31.176844,14.430319 34.796658,11.312086 
	C36.220520,12.318016 37.166012,13.182402 37.977676,14.356533 
	C34.919479,17.809183 31.995113,20.952087 29.070745,24.094994 
z"/>
<path fill="#16A4FF" opacity="1.000000" stroke="none" 
	d="
M38.111500,14.046787 
	C37.166012,13.182402 36.220520,12.318016 35.113358,11.172504 
	C38.368420,8.921794 41.785156,6.952212 45.577450,4.936140 
	C46.587082,5.998172 47.221157,7.106694 47.569313,8.603748 
	C44.226097,10.677116 41.168800,12.361951 38.111500,14.046787 
z"/>
<path fill="#367DFF" opacity="1.000000" stroke="none" 
	d="
M10.543531,23.978874 
	C12.102995,24.872639 13.323148,25.790062 14.664588,27.178654 
	C12.562284,29.752340 10.338695,31.854856 8.115104,33.957375 
	C7.108963,32.490055 6.102823,31.022738 5.027101,29.219513 
	C6.706420,27.256580 8.455321,25.629557 10.543531,23.978874 
z"/>
<path fill="#2D88FF" opacity="1.000000" stroke="none" 
	d="
M51.046543,47.110317 
	C50.424732,51.173988 49.802921,55.237663 48.694695,59.578590 
	C46.857498,59.241661 45.506725,58.627476 44.193733,57.652252 
	C44.900188,55.689369 45.568863,54.087524 46.673767,51.440674 
	C43.853336,52.761806 42.482510,53.403919 40.829914,53.884434 
	C39.700016,52.537251 38.851887,51.351665 38.323933,50.014435 
	C41.731514,47.551033 44.818928,45.239285 48.080605,43.205406 
	C49.185425,44.692291 50.115986,45.901302 51.046543,47.110317 
z"/>
<path fill="#2197FF" opacity="1.000000" stroke="none" 
	d="
M51.356102,46.971909 
	C50.115986,45.901302 49.185425,44.692291 48.235088,42.893517 
	C51.461689,39.498421 54.708065,36.693085 58.115200,34.169346 
	C59.221489,35.315346 60.167027,36.179749 61.112560,37.044151 
	C57.963596,40.307266 54.814629,43.570385 51.356102,46.971909 
z"/>
<path fill="#16A5FF" opacity="1.000000" stroke="none" 
	d="
M61.430283,36.900993 
	C60.167027,36.179749 59.221489,35.315346 58.144135,33.812233 
	C59.730465,30.114462 61.448616,27.055399 63.166767,23.996336 
	C64.293533,24.575329 65.420296,25.154320 66.826683,25.891525 
	C65.320198,29.619102 63.534103,33.188469 61.430283,36.900993 
z"/>
<path fill="#367EFF" opacity="1.000000" stroke="none" 
	d="
M44.155952,58.013290 
	C45.506725,58.627476 46.857498,59.241661 48.520966,59.926727 
	C46.440292,62.938656 44.046928,65.879700 41.315239,68.833023 
	C40.682663,67.429176 40.388412,66.013054 40.158165,63.932182 
	C41.533432,61.516045 42.844692,59.764668 44.155952,58.013290 
z"/>
<path fill="#377CFF" opacity="1.000000" stroke="none" 
	d="
M38.003761,50.166080 
	C38.851887,51.351665 39.700016,52.537251 40.653927,54.210976 
	C37.945843,55.460621 37.601181,57.302757 38.291031,59.837917 
	C38.557396,60.816784 38.195076,61.966732 38.119179,63.038734 
	C37.030613,62.704784 35.942051,62.370834 34.510124,62.017509 
	C32.027966,59.339180 29.889160,56.680218 27.220503,53.755512 
	C26.112991,51.954639 25.535336,50.419514 25.088028,48.580246 
	C26.796385,47.147518 28.374393,46.018929 30.113716,45.171700 
	C31.221458,46.316689 32.167881,47.180321 32.971283,48.363678 
	C32.958874,49.465611 33.089485,50.247822 33.220100,51.030033 
	C34.814655,50.742050 36.409206,50.454063 38.003761,50.166080 
z"/>
<path fill="#377CFF" opacity="1.000000" stroke="none" 
	d="
M17.954832,30.887688 
	C18.820423,31.832615 19.686014,32.777542 20.779808,34.240273 
	C21.059467,36.310955 21.110922,37.863838 21.162376,39.416721 
	C22.092054,39.241669 23.021732,39.066612 24.113068,39.172684 
	C25.221241,40.317036 26.167757,41.180264 26.974861,42.355782 
	C25.260956,44.127163 23.686464,45.586254 21.807648,46.901886 
	C20.297998,46.157745 19.092678,45.557064 17.887360,44.956383 
	C15.502246,42.629539 13.117133,40.302692 10.366995,37.904633 
	C9.747475,36.725498 9.492982,35.617584 9.289728,33.869370 
	C12.465010,33.378483 16.100821,35.410675 17.954832,30.887688 
z"/>
<path fill="#3E75FF" opacity="1.000000" stroke="none" 
	d="
M17.557209,45.145454 
	C19.092678,45.557064 20.297998,46.157745 21.651142,47.236954 
	C21.793861,48.784313 21.788757,49.853146 21.783651,50.921978 
	C22.841660,50.242779 23.899668,49.563583 24.957680,48.884388 
	C25.535336,50.419514 26.112991,51.954639 26.868795,53.799347 
	C24.326313,56.330441 21.418539,57.091972 18.389071,54.837601 
	C14.749717,52.129383 15.683749,48.740719 17.557209,45.145454 
z"/>
<path fill="#4966FF" opacity="1.000000" stroke="none" 
	d="
M9.356602,65.970596 
	C8.183213,65.163925 7.319465,64.218811 6.175067,63.111759 
	C7.581753,61.142933 9.098426,59.116318 11.026199,57.618984 
	C12.036829,56.834003 13.768303,56.977093 15.174242,56.701061 
	C14.983693,58.109612 15.230818,59.823986 14.506974,60.859898 
	C13.199433,62.731155 11.311691,64.196999 9.356602,65.970596 
z"/>
<path fill="#000000" opacity="1.000000" stroke="none" 
	d="
M23.951410,38.891560 
	C23.021732,39.066612 22.092054,39.241669 21.162376,39.416721 
	C21.110922,37.863838 21.059467,36.310955 21.062016,34.400257 
	C23.679193,30.930843 26.242369,27.819244 28.938145,24.401320 
	C31.995113,20.952087 34.919479,17.809183 37.977676,14.356533 
	C41.168800,12.361951 44.226097,10.677116 47.640129,8.915355 
	C50.437527,7.599465 52.500328,7.616941 54.507038,9.940194 
	C56.883583,12.691623 59.877716,14.934037 62.082481,17.798605 
	C63.109642,19.133150 62.907139,21.414125 63.214394,23.631220 
	C61.448616,27.055399 59.730465,30.114462 57.983383,33.530640 
	C54.708065,36.693085 51.461689,39.498421 48.060829,42.615646 
	C44.818928,45.239285 41.731514,47.551033 38.323933,50.014435 
	C36.409206,50.454063 34.814655,50.742050 33.220100,51.030033 
	C33.089485,50.247822 32.958874,49.465611 33.270226,48.238319 
	C35.179413,46.209969 36.646629,44.626694 38.439369,42.892647 
	C42.128124,39.172783 41.313999,35.752041 37.928925,32.964279 
	C34.869118,30.444387 31.580837,30.097406 28.650082,34.020973 
	C26.883102,35.730064 25.417255,37.310810 23.951410,38.891560 
M44.286640,15.241481 
	C40.000290,20.021812 40.031876,25.284508 44.368294,28.846518 
	C48.513321,32.251312 53.326965,31.537180 57.159103,26.326416 
	C60.635818,22.531221 58.567020,18.603649 56.120495,16.040731 
	C53.235279,13.018263 48.994728,11.769385 44.286640,15.241481 
z"/>
<path fill="#000000" opacity="1.000000" stroke="none" 
	d="
M58.140259,6.422390 
	C60.511448,6.107945 62.977947,6.107945 65.989822,6.107945 
	C65.989822,8.532722 65.989822,10.797632 65.940857,13.508791 
	C63.339783,11.548973 60.787670,9.142904 58.140259,6.422390 
z"/>
<path fill="#000000" opacity="1.000000" stroke="none" 
	d="
M17.983849,30.524042 
	C16.100821,35.410675 12.465010,33.378483 9.151849,33.553902 
	C8.962730,33.878735 8.542721,33.959106 8.328913,33.958241 
	C10.338695,31.854856 12.562284,29.752340 14.950081,27.339743 
	C16.651308,26.644587 18.188328,26.259510 20.716787,25.626043 
	C19.396910,27.839415 18.704887,28.999905 17.983849,30.524042 
z"/>
<path fill="#000000" opacity="1.000000" stroke="none" 
	d="
M38.164391,63.341412 
	C38.195076,61.966732 38.557396,60.816784 38.291031,59.837917 
	C37.601181,57.302757 37.945843,55.460621 40.935696,54.372578 
	C42.482510,53.403919 43.853336,52.761806 46.673767,51.440674 
	C45.568863,54.087524 44.900188,55.689369 44.193733,57.652252 
	C42.844692,59.764668 41.533432,61.516045 40.091049,63.574783 
	C39.376488,63.802795 38.793049,63.723442 38.164391,63.341412 
z"/>
<path fill="#000000" opacity="1.000000" stroke="none" 
	d="
M25.088028,48.580246 
	C23.899668,49.563583 22.841660,50.242779 21.783651,50.921978 
	C21.788757,49.853146 21.793861,48.784313 21.955471,47.380417 
	C23.686464,45.586254 25.260956,44.127163 27.281548,42.223114 
	C28.833817,40.555088 29.939985,39.332012 31.380302,37.953156 
	C34.458733,35.926407 35.188091,37.163548 34.634644,40.032082 
	C32.864235,41.743317 31.408318,43.316830 29.952400,44.890343 
	C28.374393,46.018929 26.796385,47.147518 25.088028,48.580246 
z"/>
<path fill="#3184FF" opacity="1.000000" stroke="none" 
	d="
M30.113716,45.171700 
	C31.408318,43.316830 32.864235,41.743317 34.796864,40.312775 
	C36.220329,41.318306 37.167088,42.180862 38.113846,43.043419 
	C36.646629,44.626694 35.179413,46.209969 33.413250,47.918598 
	C32.167881,47.180321 31.221458,46.316689 30.113716,45.171700 
z"/>
<path fill="#3184FF" opacity="1.000000" stroke="none" 
	d="
M31.046154,38.108936 
	C29.939985,39.332012 28.833817,40.555088 27.420959,41.910828 
	C26.167757,41.180264 25.221241,40.317036 24.113068,39.172684 
	C25.417255,37.310810 26.883102,35.730064 28.794598,34.324455 
	C29.842216,35.702705 30.444185,36.905823 31.046154,38.108936 
z"/>
<path fill="#1C9DFF" opacity="1.000000" stroke="none" 
	d="
M56.834335,26.997105 
	C53.326965,31.537180 48.513321,32.251312 44.368294,28.846518 
	C40.031876,25.284508 40.000290,20.021812 44.714668,15.515081 
	C45.776081,16.897337 46.409470,18.005991 47.017643,19.477131 
	C47.078136,21.417496 46.640484,23.990147 47.357792,24.367535 
	C48.881855,25.169367 51.006805,24.829084 53.166512,25.113037 
	C54.576511,25.845087 55.705421,26.421095 56.834335,26.997105 
z"/>
<path fill="#15A5FF" opacity="1.000000" stroke="none" 
	d="
M47.042862,19.114647 
	C46.409470,18.005991 45.776081,16.897337 45.072662,15.477003 
	C48.994728,11.769385 53.235279,13.018263 56.120495,16.040731 
	C58.567020,18.603649 60.635818,22.531221 56.996719,26.661760 
	C55.705421,26.421095 54.576511,25.845087 53.221169,24.769115 
	C53.746342,19.600012 51.952190,18.046221 47.042862,19.114647 
z"/>
<path fill="#2C8BFF" opacity="1.000000" stroke="none" 
	d="
M31.380301,37.953156 
	C30.444185,36.905823 29.842216,35.702705 29.095732,34.196114 
	C31.580837,30.097406 34.869118,30.444387 37.928925,32.964279 
	C41.313999,35.752041 42.128124,39.172783 38.439369,42.892647 
	C37.167088,42.180862 36.220329,41.318306 35.111351,40.175056 
	C35.188091,37.163548 34.458733,35.926407 31.380301,37.953156 
z"/>
<path fill="#000000" opacity="1.000000" stroke="none" 
	d="
M47.017647,19.477129 
	C51.952190,18.046221 53.746342,19.600012 52.940083,24.613073 
	C51.006805,24.829084 48.881855,25.169367 47.357792,24.367535 
	C46.640484,23.990147 47.078136,21.417496 47.017647,19.477129 
z"/>
</svg>