<?xml version="1.0" standalone="no"?>
<!DOCTYPE svg PUBLIC "-//W3C//DTD SVG 20010904//EN"
 "http://www.w3.org/TR/2001/REC-SVG-20010904/DTD/svg10.dtd">
<svg version="1.0" xmlns="http://www.w3.org/2000/svg"
 width="70.000000pt" height="70.000000pt" viewBox="0 0 70.000000 70.000000"
 preserveAspectRatio="xMidYMid meet">

<g transform="translate(0.000000,70.000000) scale(0.100000,-0.100000)"
fill="#000000" stroke="none">
<path d="M123 475 c-70 -30 -124 -107 -103 -146 13 -23 19 -23 44 -4 28 21 37
19 85 -15 40 -29 41 -32 26 -53 -18 -26 -20 -68 -3 -85 17 -17 59 -15 85 3 21
15 24 14 53 -26 34 -48 36 -57 15 -85 -19 -25 -19 -31 4 -44 78 -41 208 154
143 213 -17 16 -22 14 -75 -19 -32 -20 -64 -33 -73 -30 -19 7 -31 39 -17 43 7
3 27 24 47 47 l35 43 -37 36 -38 37 -49 -45 c-78 -72 -109 -40 -51 52 33 53
35 58 19 75 -19 21 -65 23 -110 3z m87 -27 c-6 -7 -21 -29 -34 -48 -21 -31
-28 -34 -70 -35 -26 0 -46 5 -46 11 0 14 38 49 75 68 37 20 91 22 75 4z m140
-116 c0 -26 -125 -146 -144 -139 -27 11 -18 29 46 94 62 63 98 79 98 45z m106
-165 c-7 -35 -60 -107 -79 -107 -8 0 -12 17 -12 47 1 43 4 48 40 72 22 14 42
31 44 36 8 19 13 -16 7 -48z"/>
<path d="M37 182 c-20 -22 -22 -42 -4 -42 17 0 59 44 50 53 -11 12 -29 8 -46
-11z"/>
<path d="M60 85 c-51 -51 -62 -67 -52 -77 10 -10 26 1 78 53 53 53 63 68 52
77 -11 9 -27 -2 -78 -53z"/>
<path d="M161 67 c-11 -13 -21 -29 -21 -35 0 -18 25 -14 43 6 34 37 12 65 -22
29z"/>
</g>
</svg>
