<?xml version="1.0" encoding="UTF-8"?><svg id="Layer_2" xmlns="http://www.w3.org/2000/svg" viewBox="0 0 340.46 64.35"><defs><style>.cls-1{fill:#0b2859;}</style></defs><g id="Layer_1-2"><g><path class="cls-1" d="M14.45,18.22h12.35l2.43-12.68h4.07l-2.43,12.68h6.44v3.54h-7.12l-2.65,13.82h9.77v3.61h-10.46l-2.42,12.62h-4.07l2.42-12.62H10.43l-2.42,12.62H3.94l2.42-12.62H0v-3.61H7.05l2.65-13.82H0v-3.54H10.38l2.43-12.68h4.07l-2.43,12.68Zm-3.33,17.36h12.35l2.65-13.82H13.78l-2.65,13.82h0Z"/><path class="cls-1" d="M74.43,34.25c0,2.8-.41,5.34-1.24,7.61-.82,2.27-2.01,4.21-3.57,5.81-1.56,1.6-3.47,2.84-5.74,3.71-2.27,.87-4.85,1.3-7.74,1.3-1.2,0-2.46-.06-3.77-.17-1.31-.11-2.6-.26-3.87-.43-1.27-.18-2.48-.39-3.64-.63s-2.18-.5-3.07-.77V1.6l9.95-1.6V17.49c1.11-.49,2.27-.87,3.47-1.13s2.49-.4,3.87-.4c2.49,0,4.69,.43,6.61,1.3,1.91,.87,3.52,2.1,4.81,3.71,1.29,1.6,2.27,3.53,2.94,5.77,.67,2.25,1,4.75,1,7.51h-.01Zm-10.15-.27c0-6.41-2.36-9.61-7.08-9.61-1.02,0-2.04,.13-3.04,.4s-1.81,.6-2.44,1v18.09c.49,.09,1.11,.17,1.87,.23,.76,.07,1.58,.1,2.47,.1,2.71,0,4.76-.93,6.14-2.8,1.38-1.87,2.07-4.34,2.07-7.41h.01Z"/><path class="cls-1" d="M78.44,7.94l9.95-1.6v10.35h11.95v8.28h-11.95v12.35c0,2.09,.37,3.76,1.1,5.01,.73,1.25,2.21,1.87,4.44,1.87,1.07,0,2.17-.1,3.3-.3s2.17-.48,3.1-.83l1.4,7.74c-1.2,.49-2.54,.91-4.01,1.27s-3.27,.53-5.41,.53c-2.71,0-4.96-.37-6.74-1.1s-3.2-1.76-4.27-3.07-1.81-2.9-2.24-4.77c-.42-1.87-.63-3.94-.63-6.21V7.94h0Z"/><path class="cls-1" d="M134.05,47.4c0,5.74-1.46,10-4.37,12.78-2.92,2.78-7.42,4.17-13.52,4.17-2.14,0-4.27-.19-6.41-.57-2.14-.38-4.12-.88-5.94-1.5l1.74-8.34c1.56,.62,3.19,1.11,4.91,1.47,1.71,.36,3.66,.53,5.84,.53,2.85,0,4.86-.62,6.04-1.87s1.77-2.85,1.77-4.81v-1.27c-1.07,.49-2.17,.86-3.3,1.1-1.13,.25-2.37,.37-3.71,.37-4.85,0-8.57-1.43-11.15-4.31-2.58-2.87-3.87-6.89-3.87-12.05,0-2.58,.4-4.93,1.2-7.04,.8-2.11,1.97-3.93,3.5-5.44,1.54-1.51,3.41-2.68,5.64-3.5,2.22-.82,4.74-1.24,7.54-1.24,1.2,0,2.44,.06,3.71,.17,1.27,.11,2.53,.26,3.77,.43,1.25,.18,2.44,.39,3.57,.63,1.13,.25,2.15,.5,3.04,.77v29.51h0Zm-21.83-14.28c0,5.56,2.25,8.34,6.74,8.34,1.02,0,1.98-.13,2.87-.4s1.65-.58,2.27-.93v-15.89c-.49-.09-1.07-.17-1.74-.23-.67-.07-1.45-.1-2.34-.1-2.63,0-4.58,.87-5.87,2.6-1.29,1.74-1.94,3.94-1.94,6.61h.01Z"/><path class="cls-1" d="M153.81,0c1.87,0,3.39,.15,4.57,.43,1.18,.29,1.95,.55,2.3,.77l-.87,3.74c-.49-.22-1.21-.46-2.17-.7-.96-.24-2.17-.37-3.64-.37-3.07,0-5.26,.78-6.58,2.34-1.31,1.56-1.97,4.05-1.97,7.48v3.6h13.89v3.67h-13.89v30.84h-4.34V13.55c0-4.49,1.03-7.88,3.1-10.15C146.28,1.13,149.47,0,153.79,0h.02Z"/><path class="cls-1" d="M173.37,16.49c2.27,0,4.19,.32,5.77,.97s2.86,1.54,3.84,2.67,1.69,2.48,2.14,4.04c.44,1.56,.67,3.25,.67,5.07v21.76c-.45,.13-1.09,.28-1.94,.43-.85,.16-1.83,.32-2.94,.5s-2.35,.32-3.71,.43-2.75,.17-4.17,.17c-1.83,0-3.5-.2-5.04-.6s-2.87-1.03-4.01-1.9c-1.13-.87-2.03-1.98-2.67-3.34-.65-1.36-.97-3.01-.97-4.97s.36-3.47,1.07-4.81,1.71-2.44,3-3.3c1.29-.87,2.83-1.5,4.61-1.9s3.72-.6,5.81-.6c.62,0,1.28,.03,1.97,.1s1.36,.16,2,.27,1.2,.22,1.67,.33,.79,.21,.97,.3v-2.14c0-1.2-.09-2.37-.27-3.5-.18-1.13-.57-2.16-1.17-3.07-.6-.91-1.45-1.65-2.54-2.2-1.09-.56-2.53-.83-4.31-.83-2.54,0-4.43,.18-5.67,.53-1.25,.36-2.16,.65-2.74,.87l-.6-3.81c.76-.36,1.92-.69,3.5-1s3.48-.47,5.71-.47h.02Zm.4,32.18c1.69,0,3.17-.06,4.44-.17,1.27-.11,2.35-.26,3.24-.43v-12.15c-.49-.22-1.27-.46-2.34-.7-1.07-.24-2.54-.37-4.41-.37-1.07,0-2.18,.08-3.34,.23-1.16,.16-2.23,.49-3.2,1-.98,.51-1.78,1.21-2.4,2.1s-.93,2.07-.93,3.54c0,1.29,.21,2.38,.63,3.27s1.02,1.6,1.8,2.14c.78,.53,1.71,.92,2.8,1.17s2.32,.37,3.7,.37h0Z"/><path class="cls-1" d="M214.95,20.83c-1.04,1.14-2.39,2.74-4.03,4.79s-3.4,4.33-5.26,6.85c-1.87,2.52-3.71,5.15-5.54,7.88-1.83,2.74-3.44,5.33-4.82,7.78h20.25v3.67h-25.23v-3.14c1.15-2.19,2.58-4.6,4.28-7.23s3.47-5.22,5.31-7.77,3.63-4.94,5.38-7.18,3.21-4.08,4.38-5.53h-18.36v-3.67h23.63v3.54h0Z"/><path class="cls-1" d="M219.16,7.94l9.95-1.6v10.35h11.95v8.28h-11.95v12.35c0,2.09,.37,3.76,1.1,5.01,.73,1.25,2.21,1.87,4.44,1.87,1.07,0,2.17-.1,3.3-.3s2.17-.48,3.1-.83l1.4,7.74c-1.2,.49-2.54,.91-4.01,1.27s-3.27,.53-5.41,.53c-2.72,0-4.96-.37-6.74-1.1s-3.2-1.76-4.27-3.07-1.81-2.9-2.24-4.77c-.42-1.87-.63-3.94-.63-6.21V7.94h.01Z"/><path class="cls-1" d="M242.79,34.51c0-3.11,.48-5.84,1.44-8.18s2.21-4.28,3.77-5.84,3.35-2.74,5.37-3.54c2.02-.8,4.11-1.2,6.24-1.2,4.98,0,8.92,1.52,11.82,4.57,2.89,3.05,4.34,7.53,4.34,13.45,0,.58-.02,1.21-.07,1.9-.04,.69-.09,1.3-.13,1.84h-22.56c.22,2.05,1.18,3.67,2.87,4.87,1.69,1.2,3.96,1.8,6.81,1.8,1.82,0,3.61-.17,5.37-.5s3.19-.74,4.31-1.23l1.34,8.08c-.53,.27-1.25,.53-2.14,.8s-1.88,.5-2.97,.7-2.26,.37-3.5,.5c-1.25,.13-2.49,.2-3.74,.2-3.16,0-5.91-.47-8.24-1.4-2.34-.93-4.27-2.21-5.81-3.84-1.54-1.62-2.67-3.55-3.4-5.77s-1.1-4.63-1.1-7.21h-.02Zm23.36-3.8c-.04-.85-.19-1.67-.43-2.47-.25-.8-.62-1.51-1.13-2.14-.51-.62-1.16-1.13-1.94-1.54-.78-.4-1.75-.6-2.9-.6s-2.07,.19-2.87,.57-1.47,.88-2,1.5-.95,1.35-1.24,2.17c-.29,.82-.5,1.66-.63,2.5h13.14Z"/><path class="cls-1" d="M278.44,34.25c0-2.54,.41-4.93,1.24-7.18,.82-2.25,2.01-4.21,3.57-5.87,1.56-1.67,3.45-2.99,5.67-3.97s4.76-1.47,7.61-1.47c1.87,0,3.58,.17,5.14,.5,1.56,.33,3.07,.81,4.54,1.44l-2.07,7.94c-.93-.36-1.96-.67-3.07-.93-1.11-.27-2.36-.4-3.74-.4-2.94,0-5.13,.91-6.58,2.74-1.45,1.83-2.17,4.23-2.17,7.21,0,3.16,.68,5.61,2.04,7.34,1.36,1.74,3.73,2.6,7.11,2.6,1.2,0,2.49-.11,3.87-.33s2.65-.58,3.81-1.07l1.4,8.14c-1.16,.49-2.6,.91-4.34,1.27s-3.65,.53-5.74,.53c-3.2,0-5.96-.48-8.28-1.44-2.31-.96-4.22-2.26-5.71-3.91s-2.58-3.59-3.27-5.84-1.03-4.68-1.03-7.31h0Z"/><path class="cls-1" d="M310.15,51.8V1.6l9.95-1.6V16.82c.67-.22,1.52-.43,2.57-.63,1.05-.2,2.06-.3,3.04-.3,2.85,0,5.22,.39,7.11,1.17,1.89,.78,3.4,1.88,4.54,3.3,1.13,1.42,1.94,3.12,2.4,5.07,.47,1.96,.7,4.14,.7,6.54v19.83h-9.95v-18.62c0-3.2-.41-5.47-1.24-6.81-.82-1.34-2.35-2-4.57-2-.89,0-1.72,.08-2.5,.23-.78,.16-1.48,.32-2.1,.5v26.7h-9.95Z"/></g></g></svg>