<?xml version="1.0" encoding="utf-8"?>
<!-- Generator: Adobe Illustrator 26.3.1, SVG Export Plug-In . SVG Version: 6.00 Build 0)  -->
<svg version="1.1" id="Layer_2_00000036969688191506449820000006719609739112549008_"
	 xmlns="http://www.w3.org/2000/svg" xmlns:xlink="http://www.w3.org/1999/xlink" x="0px" y="0px" viewBox="0 0 341.3 100"
	 style="enable-background:new 0 0 341.3 100;" xml:space="preserve">
<style type="text/css">
	.st0{fill:#FFFFFF;}
</style>
<g id="Layer_1-2">
	<g>
		<path class="st0" d="M14.4,18.2h12.3l2.4-12.7h4.1l-2.4,12.7h6.4v3.5h-7.1l-2.6,13.8h9.8v3.6H26.8l-2.4,12.6h-4.1l2.4-12.6H10.4
			L8,51.8H3.9l2.4-12.6H0v-3.6h7.1l2.7-13.8H0v-3.5h10.4l2.4-12.7h4.1C16.9,5.5,14.5,18.2,14.4,18.2z M11.1,35.6h12.4l2.6-13.8H13.8
			L11.1,35.6L11.1,35.6z"/>
		<path class="st0" d="M74.4,34.2c0,2.8-0.4,5.3-1.2,7.6c-0.8,2.3-2,4.2-3.6,5.8c-1.6,1.6-3.5,2.8-5.7,3.7c-2.3,0.9-4.8,1.3-7.7,1.3
			c-1.2,0-2.5-0.1-3.8-0.2c-1.3-0.1-2.6-0.3-3.9-0.4c-1.3-0.2-2.5-0.4-3.6-0.6s-2.2-0.5-3.1-0.8V1.6l10-1.6v17.5
			c1.1-0.5,2.3-0.9,3.5-1.1s2.5-0.4,3.9-0.4c2.5,0,4.7,0.4,6.6,1.3c1.9,0.9,3.5,2.1,4.8,3.7c1.3,1.6,2.3,3.5,2.9,5.8
			C74.1,29,74.4,31.5,74.4,34.2L74.4,34.2z M64.3,34c0-6.4-2.4-9.6-7.1-9.6c-1,0-2,0.1-3,0.4s-1.8,0.6-2.4,1v18.1
			c0.5,0.1,1.1,0.2,1.9,0.2c0.8,0.1,1.6,0.1,2.5,0.1c2.7,0,4.8-0.9,6.1-2.8C63.6,39.5,64.3,37,64.3,34L64.3,34z"/>
		<path class="st0" d="M78.4,7.9l9.9-1.6v10.4h11.9V25H88.4v12.3c0,2.1,0.4,3.8,1.1,5c0.7,1.2,2.2,1.9,4.4,1.9
			c1.1,0,2.2-0.1,3.3-0.3s2.2-0.5,3.1-0.8l1.4,7.7c-1.2,0.5-2.5,0.9-4,1.3s-3.3,0.5-5.4,0.5c-2.7,0-5-0.4-6.7-1.1s-3.2-1.8-4.3-3.1
			s-1.8-2.9-2.2-4.8c-0.4-1.9-0.6-3.9-0.6-6.2L78.4,7.9L78.4,7.9z"/>
		<path class="st0" d="M134.1,47.4c0,5.7-1.5,10-4.4,12.8c-2.9,2.8-7.4,4.2-13.5,4.2c-2.1,0-4.3-0.2-6.4-0.6
			c-2.1-0.4-4.1-0.9-5.9-1.5l1.7-8.3c1.6,0.6,3.2,1.1,4.9,1.5c1.7,0.4,3.7,0.5,5.8,0.5c2.8,0,4.9-0.6,6-1.9s1.8-2.8,1.8-4.8V48
			c-1.1,0.5-2.2,0.9-3.3,1.1c-1.1,0.2-2.4,0.4-3.7,0.4c-4.8,0-8.6-1.4-11.2-4.3c-2.6-2.9-3.9-6.9-3.9-12c0-2.6,0.4-4.9,1.2-7
			c0.8-2.1,2-3.9,3.5-5.4c1.5-1.5,3.4-2.7,5.6-3.5c2.2-0.8,4.7-1.2,7.5-1.2c1.2,0,2.4,0.1,3.7,0.2c1.3,0.1,2.5,0.3,3.8,0.4
			c1.2,0.2,2.4,0.4,3.6,0.6c1.1,0.2,2.1,0.5,3,0.8L134.1,47.4L134.1,47.4z M112.2,33.1c0,5.6,2.2,8.3,6.7,8.3c1,0,2-0.1,2.9-0.4
			s1.7-0.6,2.3-0.9V24.2c-0.5-0.1-1.1-0.2-1.7-0.2c-0.7-0.1-1.4-0.1-2.3-0.1c-2.6,0-4.6,0.9-5.9,2.6
			C112.9,28.2,112.2,30.4,112.2,33.1L112.2,33.1z"/>
		<path class="st0" d="M153.8,0c1.9,0,3.4,0.2,4.6,0.4c1.2,0.3,1.9,0.6,2.3,0.8l-0.9,3.7c-0.5-0.2-1.2-0.5-2.2-0.7
			c-1-0.2-2.2-0.4-3.6-0.4c-3.1,0-5.3,0.8-6.6,2.3c-1.3,1.6-2,4.1-2,7.5v3.6h13.9V21h-13.9v30.8h-4.3V13.6c0-4.5,1-7.9,3.1-10.1
			S149.5,0,153.8,0L153.8,0z"/>
		<path class="st0" d="M173.4,16.5c2.3,0,4.2,0.3,5.8,1s2.9,1.5,3.8,2.7s1.7,2.5,2.1,4c0.4,1.6,0.7,3.2,0.7,5.1V51
			c-0.4,0.1-1.1,0.3-1.9,0.4c-0.9,0.2-1.8,0.3-2.9,0.5s-2.4,0.3-3.7,0.4s-2.8,0.2-4.2,0.2c-1.8,0-3.5-0.2-5-0.6s-2.9-1-4-1.9
			c-1.1-0.9-2-2-2.7-3.3c-0.6-1.4-1-3-1-5s0.4-3.5,1.1-4.8s1.7-2.4,3-3.3c1.3-0.9,2.8-1.5,4.6-1.9s3.7-0.6,5.8-0.6
			c0.6,0,1.3,0,2,0.1s1.4,0.2,2,0.3s1.2,0.2,1.7,0.3s0.8,0.2,1,0.3V30c0-1.2-0.1-2.4-0.3-3.5c-0.2-1.1-0.6-2.2-1.2-3.1
			c-0.6-0.9-1.4-1.6-2.5-2.2c-1.1-0.6-2.5-0.8-4.3-0.8c-2.5,0-4.4,0.2-5.7,0.5c-1.2,0.4-2.2,0.6-2.7,0.9l-0.6-3.8
			c0.8-0.4,1.9-0.7,3.5-1S171.1,16.5,173.4,16.5L173.4,16.5z M173.8,48.7c1.7,0,3.2-0.1,4.4-0.2c1.3-0.1,2.4-0.3,3.2-0.4V35.9
			c-0.5-0.2-1.3-0.5-2.3-0.7c-1.1-0.2-2.5-0.4-4.4-0.4c-1.1,0-2.2,0.1-3.3,0.2c-1.2,0.2-2.2,0.5-3.2,1c-1,0.5-1.8,1.2-2.4,2.1
			s-0.9,2.1-0.9,3.5c0,1.3,0.2,2.4,0.6,3.3s1,1.6,1.8,2.1c0.8,0.5,1.7,0.9,2.8,1.2S172.4,48.7,173.8,48.7L173.8,48.7z"/>
		<path class="st0" d="M214.9,20.8c-1,1.1-2.4,2.7-4,4.8s-3.4,4.3-5.3,6.8c-1.9,2.5-3.7,5.2-5.5,7.9c-1.8,2.7-3.4,5.3-4.8,7.8h20.2
			v3.7h-25.2v-3.1c1.1-2.2,2.6-4.6,4.3-7.2s3.5-5.2,5.3-7.8s3.6-4.9,5.4-7.2s3.2-4.1,4.4-5.5h-18.4v-3.7h23.6L214.9,20.8L214.9,20.8
			z"/>
		<path class="st0" d="M219.2,7.9l9.9-1.6v10.4h11.9V25h-11.9v12.3c0,2.1,0.4,3.8,1.1,5c0.7,1.2,2.2,1.9,4.4,1.9
			c1.1,0,2.2-0.1,3.3-0.3s2.2-0.5,3.1-0.8l1.4,7.7c-1.2,0.5-2.5,0.9-4,1.3s-3.3,0.5-5.4,0.5c-2.7,0-5-0.4-6.7-1.1s-3.2-1.8-4.3-3.1
			s-1.8-2.9-2.2-4.8c-0.4-1.9-0.6-3.9-0.6-6.2L219.2,7.9L219.2,7.9z"/>
		<path class="st0" d="M242.8,34.5c0-3.1,0.5-5.8,1.4-8.2s2.2-4.3,3.8-5.8s3.4-2.7,5.4-3.5c2-0.8,4.1-1.2,6.2-1.2
			c5,0,8.9,1.5,11.8,4.6c2.9,3,4.3,7.5,4.3,13.4c0,0.6,0,1.2-0.1,1.9c0,0.7-0.1,1.3-0.1,1.8H253c0.2,2,1.2,3.7,2.9,4.9
			c1.7,1.2,4,1.8,6.8,1.8c1.8,0,3.6-0.2,5.4-0.5s3.2-0.7,4.3-1.2l1.3,8.1c-0.5,0.3-1.2,0.5-2.1,0.8s-1.9,0.5-3,0.7s-2.3,0.4-3.5,0.5
			c-1.2,0.1-2.5,0.2-3.7,0.2c-3.2,0-5.9-0.5-8.2-1.4c-2.3-0.9-4.3-2.2-5.8-3.8c-1.5-1.6-2.7-3.5-3.4-5.8S242.8,37.1,242.8,34.5
			L242.8,34.5z M266.1,30.7c0-0.9-0.2-1.7-0.4-2.5c-0.2-0.8-0.6-1.5-1.1-2.1c-0.5-0.6-1.2-1.1-1.9-1.5c-0.8-0.4-1.8-0.6-2.9-0.6
			s-2.1,0.2-2.9,0.6s-1.5,0.9-2,1.5s-0.9,1.4-1.2,2.2c-0.3,0.8-0.5,1.7-0.6,2.5L266.1,30.7L266.1,30.7z"/>
		<path class="st0" d="M278.4,34.2c0-2.5,0.4-4.9,1.2-7.2c0.8-2.2,2-4.2,3.6-5.9c1.6-1.7,3.5-3,5.7-4s4.8-1.5,7.6-1.5
			c1.9,0,3.6,0.2,5.1,0.5c1.6,0.3,3.1,0.8,4.5,1.4l-2.1,7.9c-0.9-0.4-2-0.7-3.1-0.9c-1.1-0.3-2.4-0.4-3.7-0.4
			c-2.9,0-5.1,0.9-6.6,2.7c-1.5,1.8-2.2,4.2-2.2,7.2c0,3.2,0.7,5.6,2,7.3c1.4,1.7,3.7,2.6,7.1,2.6c1.2,0,2.5-0.1,3.9-0.3
			s2.6-0.6,3.8-1.1l1.4,8.1c-1.2,0.5-2.6,0.9-4.3,1.3s-3.6,0.5-5.7,0.5c-3.2,0-6-0.5-8.3-1.4c-2.3-1-4.2-2.3-5.7-3.9
			s-2.6-3.6-3.3-5.8S278.4,36.9,278.4,34.2L278.4,34.2z"/>
		<path class="st0" d="M310.1,51.8V1.6l10-1.6v16.8c0.7-0.2,1.5-0.4,2.6-0.6c1-0.2,2.1-0.3,3-0.3c2.9,0,5.2,0.4,7.1,1.2
			c1.9,0.8,3.4,1.9,4.5,3.3c1.1,1.4,1.9,3.1,2.4,5.1c0.5,2,0.7,4.1,0.7,6.5v19.8h-10V33.2c0-3.2-0.4-5.5-1.2-6.8
			c-0.8-1.3-2.4-2-4.6-2c-0.9,0-1.7,0.1-2.5,0.2c-0.8,0.2-1.5,0.3-2.1,0.5v26.7C320.1,51.8,310.1,51.8,310.1,51.8z"/>
	</g>
</g>
</svg>
