<svg width="30" height="26" viewBox="0 0 30 26" fill="none" xmlns="http://www.w3.org/2000/svg">
<path d="M14.1798 6.35018C14.3973 6.56772 14.6924 6.68994 15 6.68994C15.1637 6.70746 15.3293 6.69034 15.4859 6.6397C15.6425 6.58906 15.7868 6.50602 15.9092 6.39598C16.0316 6.28595 16.1296 6.15138 16.1966 6.00102C16.2636 5.85067 16.2983 5.68789 16.2983 5.52327C16.2983 5.35865 16.2636 5.19587 16.1966 5.04551C16.1296 4.89516 16.0316 4.76059 15.9092 4.65055C15.7868 4.54052 15.6425 4.45748 15.4859 4.40684C15.3293 4.35619 15.1637 4.33908 15 4.3566C14.8451 4.35763 14.6919 4.39006 14.5498 4.45194C14.4077 4.51381 14.2797 4.60385 14.1734 4.7166C13.9735 4.94224 13.856 5.22894 13.84 5.52994C13.84 5.83759 13.9622 6.13264 14.1798 6.35018Z" fill="#195AB4"/>
<path fill-rule="evenodd" clip-rule="evenodd" d="M27.7067 20.2901L29.04 21.6235C29.2276 21.8108 29.3331 22.065 29.3334 22.3301V24.9968C29.3299 25.2609 29.2234 25.5133 29.0366 25.7001C28.8498 25.8869 28.5975 25.9933 28.3334 25.9968H1.66669C1.40254 25.9933 1.15019 25.8869 0.963399 25.7001C0.776606 25.5133 0.67014 25.2609 0.666687 24.9968V22.3301C0.66692 22.065 0.77243 21.8108 0.96002 21.6235L2.29335 20.2901C2.48071 20.1025 2.73489 19.997 3.00002 19.9968H3.33335V9.9968H2.33335C2.06921 9.99334 1.81686 9.88688 1.63007 9.70008C1.44327 9.51329 1.33681 9.26094 1.33335 8.9968V5.4768C1.33448 5.2698 1.39898 5.06811 1.51816 4.89887C1.63735 4.72962 1.80551 4.60094 2.00002 4.53013L14.6667 0.0501282C14.8839 -0.0167094 15.1162 -0.0167094 15.3334 0.0501282L28 4.53013C28.1945 4.60094 28.3627 4.72962 28.4819 4.89887C28.6011 5.06811 28.6656 5.2698 28.6667 5.4768V8.9968C28.6632 9.26094 28.5568 9.51329 28.37 9.70008C28.1832 9.88688 27.9308 9.99334 27.6667 9.9968H26.6667V19.9968H27C27.2651 19.997 27.5193 20.1025 27.7067 20.2901ZM21.3334 19.9968H24.6667V9.9968H21.3334V19.9968ZM16 9.9968V19.9968H19.3334V9.9968H16ZM10.6667 9.9968V19.9968H14V9.9968H10.6667ZM15 2.06346L3.33335 6.18346V7.9968H26.6667V6.18346L15 2.06346ZM8.66669 9.9968H5.33335V19.9968H8.66669V9.9968ZM2.66669 22.7435V23.9968H27.3334V22.7435L26.5867 21.9968H3.41335L2.66669 22.7435Z" fill="#195AB4"/>
</svg>
