<svg width="28" height="28" viewBox="0 0 28 28" fill="none" xmlns="http://www.w3.org/2000/svg">
<path fill-rule="evenodd" clip-rule="evenodd" d="M0.328125 14.0001C0.328125 6.44926 6.44926 0.328125 14.0001 0.328125C21.5509 0.328125 27.672 6.44926 27.672 14.0001C27.672 21.5509 21.5509 27.672 14.0001 27.672C6.44926 27.672 0.328125 21.5509 0.328125 14.0001ZM14.0001 2.32812C7.55383 2.32812 2.32812 7.55383 2.32812 14.0001C2.32812 20.4463 7.55383 25.672 14.0001 25.672C20.4463 25.672 25.672 20.4463 25.672 14.0001C25.672 7.55383 20.4463 2.32812 14.0001 2.32812Z" fill="#195AB4"/>
<path d="M19.6571 10.5766C19.6946 10.6092 19.7297 10.6444 19.7619 10.6821C19.8215 10.7515 19.8699 10.8271 19.9073 10.9066C19.9682 11.0358 20.0022 11.1801 20.0022 11.3324V15.0699C20.0022 15.6222 19.5545 16.0699 19.0022 16.0699C18.4499 16.0699 18.0022 15.6222 18.0022 15.0699V13.7465L14.3737 17.375C13.9832 17.7655 13.35 17.7655 12.9595 17.375L10.9988 15.4143L9.03816 17.375C8.64764 17.7655 8.01447 17.7655 7.62395 17.375C7.23342 16.9845 7.23342 16.3513 7.62395 15.9608L10.2917 13.293C10.6822 12.9025 11.3154 12.9025 11.7059 13.293L13.6666 15.2537L16.5879 12.3324H15.2646C14.7124 12.3324 14.2646 11.8846 14.2646 11.3324C14.2646 10.7801 14.7124 10.3324 15.2646 10.3324H19.0022C19.1453 10.3324 19.2815 10.3624 19.4046 10.4166C19.4945 10.4561 19.5797 10.5094 19.6571 10.5766Z" fill="#195AB4"/>
</svg>
