<svg width="26" height="28" viewBox="0 0 26 28" fill="none" xmlns="http://www.w3.org/2000/svg">
<path d="M7.66667 12.97C7.93188 12.97 8.18624 12.8646 8.37377 12.6771C8.56131 12.4896 8.66667 12.2352 8.66667 11.97C8.66667 11.7048 8.56131 11.4504 8.37377 11.2629C8.18624 11.0754 7.93188 10.97 7.66667 10.97C3.94667 10.97 2 9.73 2 9.30334V6.51667C3.78436 7.29959 5.71863 7.68189 7.66667 7.63667C9.6147 7.68189 11.549 7.29959 13.3333 6.51667V7.97C13.3333 8.23522 13.4387 8.48957 13.6262 8.67711C13.8138 8.86465 14.0681 8.97 14.3333 8.97C14.5985 8.97 14.8529 8.86465 15.0404 8.67711C15.228 8.48957 15.3333 8.23522 15.3333 7.97V3.97C15.3333 -0.843329 0 -0.843329 0 3.97V19.97C0 22.3833 3.85333 23.6367 7.66667 23.6367C7.93188 23.6367 8.18624 23.5313 8.37377 23.3438C8.56131 23.1562 8.66667 22.9019 8.66667 22.6367C8.66667 22.3715 8.56131 22.1171 8.37377 21.9296C8.18624 21.742 7.93188 21.6367 7.66667 21.6367C3.94667 21.6367 2 20.3967 2 19.97V17.1833C3.78436 17.9663 5.71863 18.3486 7.66667 18.3033C7.93188 18.3033 8.18624 18.198 8.37377 18.0104C8.56131 17.8229 8.66667 17.5686 8.66667 17.3033C8.66667 17.0381 8.56131 16.7838 8.37377 16.5962C8.18624 16.4087 7.93188 16.3033 7.66667 16.3033C3.94667 16.3033 2 15.0633 2 14.6367V11.85C3.78436 12.6329 5.71863 13.0152 7.66667 12.97ZM7.66667 2.30334C11.3867 2.30334 13.3333 3.54334 13.3333 3.97C13.3333 4.39667 11.3867 5.63667 7.66667 5.63667C3.94667 5.63667 2 4.39667 2 3.97C2 3.54334 3.94667 2.30334 7.66667 2.30334Z" fill="#195AB4"/>
<path d="M26 13.3033C25.9866 12.9904 25.9114 12.6831 25.7786 12.3994C25.6459 12.1156 25.4583 11.8609 25.2267 11.65C24.0133 10.4367 21.3733 9.67667 18.3333 9.67667C15.2933 9.67667 12.6533 10.4367 11.44 11.65C11.2084 11.8609 11.0208 12.1156 10.888 12.3994C10.7553 12.6831 10.6801 12.9904 10.6667 13.3033V23.97C10.6667 26.3833 14.52 27.6367 18.3333 27.6367C22.1467 27.6367 26 26.3833 26 23.97V13.3033ZM12.6667 15.85C14.451 16.6329 16.3853 17.0152 18.3333 16.97C20.2814 17.0152 22.2156 16.6329 24 15.85V18.6367C24 19.0767 22.0533 20.3033 18.3333 20.3033C14.6133 20.3033 12.6667 19.0633 12.6667 18.6367V15.85ZM12.8533 13.0233C14.4827 11.986 16.6667 11.6894 18.3333 11.69C20 11.6894 22.184 11.986 23.8133 13.0233C23.9467 13.1567 24 13.25 24 13.3033C24 13.7433 22.04 14.97 18.3333 14.97C14.6267 14.97 12.6667 13.73 12.6667 13.3033C12.6667 13.3033 12.72 13.1567 12.8533 13.0233ZM18.3333 25.6367C14.6133 25.6367 12.6667 24.3967 12.6667 23.97V21.1833C14.451 21.9663 16.3853 22.3486 18.3333 22.3033C20.2814 22.3486 22.2156 21.9663 24 21.1833V23.97C24 24.3967 22.0533 25.6367 18.3333 25.6367Z" fill="#195AB4"/>
</svg>
