<svg width="36" height="24" viewBox="0 0 36 24" fill="none" xmlns="http://www.w3.org/2000/svg">
<path d="M15.1199 23.4606C13.7999 23.4606 12.4799 22.9806 11.4199 22.0206L8.63989 19.5006C8.47989 19.3606 8.31989 19.2406 8.13989 19.1606C7.97989 19.4006 7.79989 19.6006 7.59989 19.8006C6.81989 20.5806 5.75989 21.0206 4.65989 21.0206H1.63989C0.819893 21.0206 0.139893 20.3406 0.139893 19.5206V3.54059C0.139893 2.72059 0.819893 2.04059 1.63989 2.04059H4.67989C5.79989 2.04059 6.83989 2.48059 7.61989 3.26059C8.03989 3.68059 8.33989 4.16059 8.55989 4.68059L11.4399 3.64059C12.6599 3.20059 13.9799 3.22059 15.1799 3.68059L18.6399 1.44059C20.1999 0.440588 22.1399 0.280588 23.8399 1.02059L28.5599 3.10059C29.3199 2.44059 30.3199 2.06059 31.3199 2.06059H34.3599C35.1799 2.06059 35.8599 2.74059 35.8599 3.56059V19.5406C35.8599 20.3606 35.1799 21.0406 34.3599 21.0406H31.3199C30.2199 21.0406 29.1399 20.6006 28.3799 19.8206C28.0799 19.5206 27.8399 19.2006 27.6399 18.8406H26.9799C26.6199 18.8406 26.2599 18.9206 25.9399 19.0606L17.6599 22.8206C16.8599 23.2406 15.9799 23.4606 15.0999 23.4606H15.1199ZM8.83989 16.2006C9.51989 16.4406 10.1399 16.8006 10.6599 17.2806L13.4399 19.8006C14.1999 20.5006 15.2799 20.6406 16.1599 20.2206C16.1999 20.2006 16.2399 20.1806 16.2999 20.1406H16.3199C16.4999 20.0406 16.6599 19.9206 16.7999 19.7806L20.8399 16.0806C21.3599 15.6006 21.6599 14.9406 21.6599 14.2206C21.6599 13.5006 21.3599 12.8606 20.8399 12.3806L19.9999 11.6206L17.7799 12.6606C16.1199 13.4406 14.1999 13.1406 12.8399 11.9206C11.7999 10.9606 11.2599 9.62059 11.3799 8.22059C11.4199 7.68059 11.5599 7.18059 11.7799 6.70059L8.83989 7.76059V16.2206V16.2006ZM31.3399 5.04059C31.0399 5.04059 30.7399 5.16059 30.5199 5.38059C30.2999 5.60059 30.1799 5.90059 30.1799 6.20059V16.8606C30.1799 17.1806 30.2999 17.4606 30.5199 17.6806C30.7399 17.9006 31.0399 18.0206 31.3399 18.0206H32.8799V5.04059H31.3399ZM3.13989 18.0406H4.67989C4.99989 18.0406 5.27989 17.9206 5.49989 17.7006C5.71989 17.4806 5.83989 17.1806 5.83989 16.8806V6.74059C5.83989 6.74059 5.83989 6.70059 5.83989 6.68059V6.22059C5.83989 5.90059 5.71989 5.62059 5.49989 5.40059C5.27989 5.18059 4.97989 5.06059 4.67989 5.06059H3.13989V18.0606V18.0406ZM20.2599 8.36059C20.6199 8.36059 20.9799 8.48059 21.2599 8.74059L22.8399 10.1806C23.9799 11.2206 24.6399 12.7006 24.6399 14.2406C24.6399 15.0606 24.4599 15.8606 24.1199 16.5806L24.6999 16.3206C25.3999 16.0006 26.1999 15.8206 26.9799 15.8206H27.1599V6.20059C27.1599 6.04059 27.1599 5.90059 27.1799 5.76059L22.6199 3.76059C21.8399 3.42059 20.9599 3.50059 20.2599 3.94059L15.0399 7.32059C14.6399 7.58059 14.3999 8.00059 14.3599 8.46059C14.3199 8.94059 14.4999 9.38059 14.8599 9.70059C15.3199 10.1006 15.9599 10.2006 16.5199 9.94059L19.5599 8.52059C19.7799 8.40059 20.0199 8.34059 20.2599 8.34059V8.36059Z" fill="#195AB4"/>
</svg>
